<svg xmlns="http://www.w3.org/2000/svg" viewBox="0 0 313.49 41.64"><defs><style>.cls-1{fill:#534536;opacity:0.8;}</style></defs><title>Asset 7</title><g id="Layer_2" data-name="Layer 2"><g id="Layer_1-2" data-name="Layer 1"><path class="cls-1" d="M53.56,35a1.3,1.3,0,0,1-.66,1.8A33.84,33.84,0,0,1,44,39.62a35.71,35.71,0,0,1-4.47.13c-1.66-.06-2.8-.15-3.75-.27A23.14,23.14,0,0,1,26,35.77a24.68,24.68,0,0,1-6.6-6.64,44,44,0,0,1-2.85-5.23,4.34,4.34,0,0,0-3.43-2.35L7.77,21.3a4.11,4.11,0,0,0-3.6,2.22l-.76,1.86v-.07A1.47,1.47,0,0,1,2,26.19a1.49,1.49,0,0,1-.53-.06h0a1.53,1.53,0,0,1-.79-1.89C4.35,15.62,6.14,11.3,9.69,2.67a1.87,1.87,0,0,1,1.41-.92,1.43,1.43,0,0,1,1.32,1c1.22,3.87,1.83,5.8,3.06,9.66l.22.57v0a4.64,4.64,0,0,0,.27,1.1l1.37,4.33c3.11,9,8.21,16.75,18.85,18.26a33.9,33.9,0,0,0,3.39.3,24.66,24.66,0,0,0,12.09-2.64,1.37,1.37,0,0,1,1.85.65ZM11.2,18.58a2.08,2.08,0,0,0,2.27-2.84l-1.36-4.3c-.31-.89-.78-1.37-1.38-1.39s-1,.3-1.46,1.23l-.2.52C8.56,13,8,14.27,7.54,15.47v0a2.07,2.07,0,0,0,2,3.07Z" transform="translate(-0.65 -0.64)"/><path class="cls-1" d="M27.37,7.06a9.9,9.9,0,0,0-.55,14.1,9.83,9.83,0,0,0,7,3.18A10,10,0,0,0,41,21.69a1.34,1.34,0,0,1,1.07-.42,1.86,1.86,0,0,1,1,.46,2.4,2.4,0,0,1,.38,1.13,1.42,1.42,0,0,1-.46,1h0a12.76,12.76,0,0,1-9.41,3.45A13,13,0,0,1,21.12,13.85a12.86,12.86,0,0,1,4.2-9,13.08,13.08,0,0,1,18.43.69h0a1.63,1.63,0,0,1,.38,1.1,1.43,1.43,0,0,1-.42,1,1.46,1.46,0,0,1-1.1.38,1.23,1.23,0,0,1-1-.42,10.07,10.07,0,0,0-14.16-.56Z" transform="translate(-0.65 -0.64)"/><path class="cls-1" d="M51.14,7.91A9.9,9.9,0,0,0,50.68,22a9.83,9.83,0,0,0,7,3.12,10,10,0,0,0,7.2-2.7A1.34,1.34,0,0,1,66,22a1.86,1.86,0,0,1,1,.45,2.41,2.41,0,0,1,.39,1.13,1.42,1.42,0,0,1-.45,1h0a13.23,13.23,0,0,1-18.53-.56,12.93,12.93,0,0,1,.6-18.37,13.08,13.08,0,0,1,18.43.55h0a1.63,1.63,0,0,1,.39,1.1,1.43,1.43,0,0,1-.41,1,1.46,1.46,0,0,1-1.1.39,1.23,1.23,0,0,1-1-.41,10.07,10.07,0,0,0-14.17-.46Z" transform="translate(-0.65 -0.64)"/><path class="cls-1" d="M92.24,7a12.6,12.6,0,0,1,3.55,9.14,12.6,12.6,0,0,1-3.9,9,12.8,12.8,0,0,1-9.21,3.55,12.6,12.6,0,0,1-9-4,12.64,12.64,0,0,1,.46-18.13A12.87,12.87,0,0,1,92.24,7Zm.56,9.08a9.84,9.84,0,0,0-19.68-.44,9.84,9.84,0,0,0,19.68.44Z" transform="translate(-0.65 -0.64)"/><path class="cls-1" d="M121.42,5.19l-.25,22.75a1.49,1.49,0,0,1-1.5,1.49,1.55,1.55,0,0,1-1.53-1.52l.12-10.43c-.16-1.37-.89-2-1.73-2.05a2.17,2.17,0,0,0-1.81,1.31h0l-1.87,2.81-1.8,2.92a1.31,1.31,0,0,1-1.28.65,1.41,1.41,0,0,1-1.33-.72l-1.55-2.61-.86-1.48-1.17-1.91a2.33,2.33,0,0,0-1.81-1.25c-.95,0-1.8.71-1.83,2.21l-.07,4.1-.14,6.23a1.49,1.49,0,0,1-1.51,1.48A1.51,1.51,0,0,1,98,27.61l.41-22.75a1.43,1.43,0,0,1,1.15-1.38,1.6,1.6,0,0,1,1.67.73c2.36,4,3.54,6,5.91,10l.55.88,0,0,.34.56a2.34,2.34,0,0,0,1.84,1.29,2.06,2.06,0,0,0,1.77-1.1l.36-.59c2.67-4.32,4-6.48,6.66-10.8a1.65,1.65,0,0,1,1.72-.65A1.39,1.39,0,0,1,121.42,5.19Z" transform="translate(-0.65 -0.64)"/><path class="cls-1" d="M146.74,39.57a9,9,0,0,1-2.66-6.49l.06-14.95v0a1.85,1.85,0,0,0-1.68-1.86,1.82,1.82,0,0,0-1.69,1.15L139,20.14l-1.67,2.79a1.58,1.58,0,0,1-1.27.69h0a1.49,1.49,0,0,1-1.26-.71l-1.5-2.57-2-3.17A2,2,0,0,0,129.6,16c-.84,0-1.69.68-1.71,2.08l0,3.26L127.8,28a1.46,1.46,0,0,1-1.5,1.46A1.44,1.44,0,0,1,124.84,28l.21-21.81a1.31,1.31,0,0,1,1.06-1.39h0a1.08,1.08,0,0,1,.39,0,1.48,1.48,0,0,1,1.25.71c2.28,3.83,3.42,5.74,5.71,9.57l.52.88.38.6a2,2,0,0,0,1.68,1.1,1.91,1.91,0,0,0,1.66-1.07l.32-.56c2.54-4.17,3.81-6.26,6.33-10.43h0a1.26,1.26,0,0,1,1.19-.66,2,2,0,0,1,.46,0,1.39,1.39,0,0,1,1,1.4c0,10.71-.05,16.07-.08,26.78a6.28,6.28,0,0,0,10.31,4.74l0,0,0,0c.11-.1.07-.14.18-.17a1.54,1.54,0,0,1,.92-.32A1.5,1.5,0,0,1,160,38.74a1.37,1.37,0,0,1-.39,1,.81.81,0,0,1-.25.25l0,0a9,9,0,0,1-6.09,2.27A9.21,9.21,0,0,1,146.74,39.57Z" transform="translate(-0.65 -0.64)"/><path class="cls-1" d="M172.92,7.62a12.6,12.6,0,0,1,3.77,9A12.6,12.6,0,0,1,173,25.75a12.8,12.8,0,0,1-9.12,3.78,12.6,12.6,0,0,1-9.1-3.74,12.64,12.64,0,0,1,0-18.13,12.87,12.87,0,0,1,18.12,0Zm.78,9.06a9.84,9.84,0,0,0-19.68,0,9.84,9.84,0,0,0,19.68,0Z" transform="translate(-0.65 -0.64)"/><path class="cls-1" d="M185.54,3.72a12.84,12.84,0,0,1,13,12.75,12.74,12.74,0,0,1-12.76,13l-4.87,0a1.51,1.51,0,0,1-1.56-1.5c-.06-8.76-.09-13.15-.14-21.91v-.8a1.53,1.53,0,0,1,1.53-1.52Zm.19,22.72a9.85,9.85,0,0,0-.17-19.71h-.39l-.24.07a3,3,0,0,0-2.75,2.93v.87c0,5,0,7.46.06,12.43l0,.49a3,3,0,0,0,3.05,2.88h.21Z" transform="translate(-0.65 -0.64)"/><path class="cls-1" d="M219.63,27.07v0a1.53,1.53,0,0,1-.88,2h0a1.54,1.54,0,0,1-2-.94,4.08,4.08,0,0,1-.33-.83l-.4-1a4.23,4.23,0,0,0-3.64-2.39l-5.07.08a4.29,4.29,0,0,0-3.59,2.5L203,28.39v0a1.53,1.53,0,0,1-1.43,1,2,2,0,0,1-.49,0,1.63,1.63,0,0,1-.91-2v0c3.2-9.11,4.79-13.67,7.94-22.8a1.32,1.32,0,0,1,1.35-1.07,1.81,1.81,0,0,1,1.45,1C214.4,13.51,216.13,18,219.63,27.07Zm-8.92-6.18a2.11,2.11,0,0,0,2.1-3l-1.65-4.35c-.37-.94-.87-1.42-1.53-1.41s-1.08.54-1.45,1.56a.11.11,0,0,1,0,.07L208,14l-1.38,3.94a2.14,2.14,0,0,0,2.23,3Z" transform="translate(-0.65 -0.64)"/><path class="cls-1" d="M234.59,2.84a1.55,1.55,0,0,1,1.54,1.5,1.49,1.49,0,0,1-1.47,1.51L230.42,6a3,3,0,0,0-2.88,2.93l.39,18.34a1.49,1.49,0,0,1-1.45,1.54,1.58,1.58,0,0,1-1.58-1.47L224.54,10,224.49,9a2.86,2.86,0,0,0-2.9-2.81h-4.21a1.47,1.47,0,0,1-1.57-1.44,1.53,1.53,0,0,1,1.51-1.57C224.23,3.07,227.68,3,234.59,2.84Z" transform="translate(-0.65 -0.64)"/><path class="cls-1" d="M241.38,4.32,242,27.07a1.52,1.52,0,0,1-3,.08L238.37,4.4a1.51,1.51,0,0,1,3-.08Z" transform="translate(-0.65 -0.64)"/><path class="cls-1" d="M267.44,5.83a12.59,12.59,0,0,1,4,8.94A12.6,12.6,0,0,1,268,24a12.8,12.8,0,0,1-9,4,12.6,12.6,0,0,1-9.21-3.48,12.64,12.64,0,0,1-.5-18.12,12.87,12.87,0,0,1,18.12-.55Zm1,9a9.84,9.84,0,0,0-19.68.6,9.84,9.84,0,0,0,19.68-.6Z" transform="translate(-0.65 -0.64)"/><path class="cls-1" d="M292.54,2.63l.93,22.73a1.44,1.44,0,0,1-1,1.51s-.18,0-.42.05a1.51,1.51,0,0,1-1.33-.54c-3.29-4.3-4.94-6.45-8.21-10.75l-2-2.62a2,2,0,0,0-1.8-1.19c-1,0-1.76.94-1.74,2.34L277.39,26A1.46,1.46,0,0,1,276,27.53a1.51,1.51,0,0,1-1.6-1.45l-.8-22.74a1.54,1.54,0,0,1,1-1.44,1.58,1.58,0,0,1,1.7.53v0c3.15,4.15,4.73,6.22,7.9,10.36l2.33,3a2.08,2.08,0,0,0,1.77,1.09,1.85,1.85,0,0,0,1.72-2l-.49-12.14A1.52,1.52,0,0,1,291,1.22,1.45,1.45,0,0,1,292.54,2.63Z" transform="translate(-0.65 -0.64)"/><path class="cls-1" d="M313.58,16v0a8.19,8.19,0,0,1,.51,2.64c0,.45,0,.67,0,.91v.24l0,0A6.88,6.88,0,0,1,311.88,24a9.78,9.78,0,0,1-6.22,2.21,9.65,9.65,0,0,1-6.44-2v0a7.15,7.15,0,0,1-2.6-4.76l0-.7a1.58,1.58,0,0,1,1.48-1.57,1.52,1.52,0,0,1,1.58,1.44l0,.7c0,1.15,1.9,4,5.85,3.81,4.9-.22,5.51-3,5.58-3.76.25-2.92-1.22-4.21-6.42-5.56A17.54,17.54,0,0,1,300.13,12h0A8.07,8.07,0,0,1,298,9.76a6.07,6.07,0,0,1-.81-3.43,6.23,6.23,0,0,1,2-3.8h0A9.24,9.24,0,0,1,304.51.64a8.46,8.46,0,0,1,5.55,1.75v0a5.88,5.88,0,0,1,2.16,4.14A1.39,1.39,0,0,1,310.85,8a1.44,1.44,0,0,1-1.61-1.33c0-.94-1.55-3.15-4.6-3a5.34,5.34,0,0,0-3.46,1.2,2.64,2.64,0,0,0-.87,1.72c-.18,2.35,2.77,3.79,5.11,4.44a17.58,17.58,0,0,1,5.85,2.43A6.57,6.57,0,0,1,313.58,16Z" transform="translate(-0.65 -0.64)"/></g></g></svg>