<svg xmlns="http://www.w3.org/2000/svg" viewBox="0 0 310.28 78.48"><defs><style>.cls-1{fill:#534536;}</style></defs><title>Asset 6</title><g id="Layer_2" data-name="Layer 2"><g id="Layer_1-2" data-name="Layer 1"><path class="cls-1" d="M18.67,4.22c9-.76,20.55,3.91,26.95,9.8S57,31.15,57.21,39.66s-4,20.1-9.85,26.33S30.6,77.66,21.72,77.66c-5.52.23-8.28.35-13.8.6a4.3,4.3,0,0,1-4.6-4.09L.37,11.64.27,9.34a4.4,4.4,0,0,1,4.3-4.5C10.2,4.58,13,4.45,18.67,4.22Zm2.69,64.85C35.9,67.86,49,54.88,48.51,39.93,48,24.83,33.72,12.82,19,12.81l-1.12,0-.71.23a8.54,8.54,0,0,0-7.69,8.64l.11,2.5L11.1,59.7l.16,1.39a8.44,8.44,0,0,0,9,7.92l.6,0Z" transform="translate(-0.26 0)"/><path class="cls-1" d="M156,.25a4.14,4.14,0,0,1,2.86,5.3c-3.39,10.79-6.58,21.64-9.73,32.51s-6.31,21.69-9.44,32.54v-.1c-.69,1.3-2.23,3.06-3.69,3.12a4.66,4.66,0,0,1-4.32-2.47v.1c-4.72-9.4-7.1-14.1-11.88-23.49l-3-5.57c-2-2.58-3.89-3.85-5.61-3.83-1.92,0-3.62,1.35-5.2,3.88l-2.84,5.55c-4.56,9.64-6.83,14.46-11.32,24.11A4.73,4.73,0,0,1,88,74.28c-.3,0-.3-.09-.4-.09v.1c-1.6-.07-3-1.53-3.77-3v.1C77,49.79,69.94,28.33,62.75,6.88A4.36,4.36,0,0,1,65.57,1.5a4.45,4.45,0,0,1,5.7,2.65Q76.88,21.5,82.38,38.89l2.45,5.75c1.56,2.07,3.4,3.13,5.32,3.09,2.32,0,4-1.18,5.28-3.5-.1.3.39-.71.49-1,0-.1,0-.1.1-.2l.29-.51c4.32-9.12,6.49-13.68,10.88-22.79l.1-.1A3.86,3.86,0,0,1,111,17.17a4.44,4.44,0,0,1,2.76,1l.52.49.41.59c3,6,6.55,12.22,9.54,18.19l3.3,6.57A6,6,0,0,0,133,47.34a5.09,5.09,0,0,0,5-3.23l2.79-8.52q4.75-16.28,9.55-32.53c.92-2,3.17-3.71,5.52-2.81Z" transform="translate(-0.26 0)"/><path class="cls-1" d="M205.68,66.71a4.34,4.34,0,0,1,4.14,4.47,4.19,4.19,0,0,1-4.27,4.23q-17.26-.23-34.51-.33c-4.9,0-8.5-2.83-8.49-6.43q.05-30.25.1-60.5c0-3.9,3.69-6.6,8.71-6.57q17.49.11,35,.34a4.18,4.18,0,0,1,4.13,4.26,4.21,4.21,0,0,1-4.25,4.24c-10.65-.08-16-.1-26.63-.09a8.5,8.5,0,0,0-8.3,8.25l0,5a8.34,8.34,0,0,0,8.58,8.35h.61c6.85.09,10.28.14,17.13.27a4.38,4.38,0,0,1,4.2,4.56,4,4,0,0,1-4.3,4c-6.47-.08-9.7-.11-16.17-.16-5.77.46-10.13,4.14-10.15,8.44l0,9a8.29,8.29,0,0,0,8.49,8.35C190,66.5,195.25,66.56,205.68,66.71Z" transform="translate(-0.26 0)"/><path class="cls-1" d="M255.92,67.85A4.33,4.33,0,0,1,260,72.38a4.19,4.19,0,0,1-4.34,4.17q-14.75-.45-29.5-.76c-4.9-.1-8.65-3-8.58-6.57l1.17-62.89a4.39,4.39,0,0,1,4.58-4.11,4.27,4.27,0,0,1,4.21,4.29l-1.11,52.39a8.4,8.4,0,0,0,8,8.38C243,67.48,247.33,67.59,255.92,67.85Z" transform="translate(-0.26 0)"/><path class="cls-1" d="M306.54,69.78a4.34,4.34,0,0,1,4,4.59,4.19,4.19,0,0,1-4.4,4.1q-14.74-.68-29.49-1.22c-4.9-.18-8.6-3.11-8.48-6.71l2.14-62.87a4.39,4.39,0,0,1,4.64-4A4.27,4.27,0,0,1,279.09,8l-1.92,52.37a8.4,8.4,0,0,0,7.92,8.51C293.67,69.2,298,69.39,306.54,69.78Z" transform="translate(-0.26 0)"/></g></g></svg>