<svg xmlns="http://www.w3.org/2000/svg" viewBox="0 0 871.5 230.92"><defs><style>.cls-1{fill:#c6d061;fill-rule:evenodd;}</style></defs><title>Asset 5</title><g id="Layer_2" data-name="Layer 2"><g id="Layer_1-2" data-name="Layer 1"><path class="cls-1" d="M221,73.52a109.29,109.29,0,0,1,19.62,1.77,58.79,58.79,0,0,1-1.66-13.92C238.92,27.48,267.76,0,303.33,0c31.55,0,57.79,21.61,63.33,50.15a101.92,101.92,0,0,1,82.67-4A64.25,64.25,0,0,1,573.15,66.72,46.66,46.66,0,0,1,633,83.43c21.55-18.33,49.29-26.06,75.63-18.26,35.2,10.42,57.41,45.47,57.81,85.4,21.82-8.64,49.1-.07,59.8,20.36a50.51,50.51,0,0,1,5.5,18.66,26.67,26.67,0,0,1,32.69,41.34H137.33a95.36,95.36,0,0,1-20.14-58.53c0-54.6,46.46-98.87,103.78-98.87Z"/><path class="cls-1" d="M99.95,12.72a38.81,38.81,0,0,1-.46,77A53.34,53.34,0,1,1,58.21,63.4,38.83,38.83,0,0,1,99.95,12.72Z"/></g></g></svg>