<svg xmlns="http://www.w3.org/2000/svg" viewBox="0 0 463.3 291.14"><defs><style>.cls-1{fill:#74afaf;}.cls-1,.cls-10,.cls-11,.cls-12,.cls-13,.cls-14,.cls-15,.cls-16,.cls-17,.cls-18,.cls-19,.cls-2,.cls-20,.cls-21,.cls-22,.cls-23,.cls-24,.cls-25,.cls-26,.cls-3,.cls-4,.cls-5,.cls-6,.cls-7,.cls-8,.cls-9{fill-rule:evenodd;}.cls-2{fill:#695540;}.cls-3{fill:#a98b6a;}.cls-4{fill:#fff;}.cls-5{fill:#d5d5d5;}.cls-6{fill:#a2a2a2;}.cls-7{fill:#44636a;}.cls-8{fill:#94cece;}.cls-9{fill:#909090;}.cls-10{fill:#3e3429;}.cls-11{fill:#989898;}.cls-12{fill:#70a5a5;}.cls-13{fill:#b2b2b2;}.cls-14{fill:#90704e;}.cls-15{fill:#62513f;}.cls-16{fill:#2c271f;}.cls-17{fill:#656666;}.cls-18{fill:#434343;}.cls-19{fill:#aed3ca;}.cls-20{fill:#6da0a0;}.cls-21{fill:#535353;}.cls-22{fill:#7f7f7f;}.cls-23{fill:#7d6143;}.cls-24{fill:#f0f0f0;}.cls-25{fill:#cbcbcb;}.cls-26{fill:#534536;}</style></defs><title>Asset 3</title><g id="Layer_2" data-name="Layer 2"><g id="Layer_1-2" data-name="Layer 1"><polygon class="cls-1" points="152.15 67.86 112.06 125.9 112.06 268.26 192.23 268.26 192.23 125.9 152.15 67.86 152.15 67.86"/><polygon class="cls-2" points="206.43 121.47 436.74 121.47 436.74 268.26 206.43 268.26 206.43 121.47 206.43 121.47"/><polygon class="cls-3" points="206.43 121.47 436.74 121.47 372.18 28 141.87 28 206.43 121.47 206.43 121.47"/><polygon class="cls-4" points="192.23 125.9 141.87 52.99 141.87 52.99 91.51 125.9 91.51 268.26 77.31 268.26 77.31 121.47 141.87 28 141.87 28 206.43 121.47 206.43 268.26 192.23 268.26 192.23 125.9 192.23 125.9"/><polygon class="cls-5" points="91.51 125.9 112.06 125.9 112.06 268.26 91.51 268.26 91.51 125.9 91.51 125.9"/><polygon class="cls-6" points="141.87 52.99 152.15 67.86 112.06 125.9 91.51 125.9 141.87 52.99 141.87 52.99"/><polygon class="cls-7" points="152.15 67.86 112.06 125.9 112.06 268.26 192.23 268.26 192.23 268.26 132.6 268.26 132.6 160.18 172.69 102.14 192.23 130.43 192.23 125.9 152.15 67.86 152.15 67.86"/><polygon class="cls-4" points="306.32 268.26 336.86 268.26 336.86 199.91 306.32 199.91 306.32 268.26 306.32 268.26"/><polygon class="cls-1" points="306.32 268.26 329.93 268.26 329.93 199.91 306.32 199.91 306.32 268.26 306.32 268.26"/><polygon class="cls-1" points="306.32 157.31 329.93 157.31 329.93 123.63 306.32 123.63 306.32 157.31 306.32 157.31"/><polygon class="cls-8" points="306.22 121.47 290.95 99.36 313.26 99.36 330.03 123.63 306.22 123.63 306.22 121.47 306.22 121.47"/><polygon class="cls-9" points="179.87 268.26 463.3 268.26 463.3 279.7 179.87 279.7 179.87 268.26 179.87 268.26"/><polygon class="cls-4" points="315.92 171.51 295.03 171.51 295.03 185.71 315.92 185.71 315.92 171.51 315.92 171.51"/><polygon class="cls-5" points="369.04 185.71 369.04 268.26 383.24 268.26 383.24 171.51 315.92 171.51 315.92 185.71 369.04 185.71 369.04 185.71"/><polygon class="cls-4" points="348.15 185.71 348.15 268.26 369.04 268.26 369.04 185.71 348.15 185.71 348.15 185.71"/><polygon class="cls-10" points="348.15 185.71 295.03 185.71 306.22 201.91 306.22 199.91 336.96 199.91 336.96 213.81 348.15 213.81 348.15 185.71 348.15 185.71"/><polygon class="cls-11" points="348.15 185.71 348.15 213.81 355.2 213.81 369.04 185.71 348.15 185.71 348.15 185.71"/><polygon class="cls-11" points="112.06 125.9 112.06 143.04 91.51 125.9 112.06 125.9 112.06 125.9"/><polygon class="cls-12" points="306.32 121.47 291.05 99.36 297.24 99.36 314 123.63 306.32 123.63 306.32 121.47 306.32 121.47"/><polygon class="cls-7" points="306.22 157.31 314 157.31 314 123.63 306.22 123.63 306.22 157.31 306.22 157.31"/><polygon class="cls-7" points="306.32 268.26 314 268.26 314 227.88 329.93 227.88 329.93 199.91 306.32 199.91 306.32 268.26 306.32 268.26"/><polygon class="cls-13" points="329.93 227.88 336.86 213.81 336.86 199.91 329.93 199.91 329.93 227.88 329.93 227.88"/><polygon class="cls-13" points="0 268.26 179.87 268.26 179.87 279.7 0 279.7 0 268.26 0 268.26"/><path class="cls-14" d="M220.33,121.47h2.76L158.52,28h-2.76l64.56,93.47Z"/><path class="cls-14" d="M237,121.47h2.76L175.17,28h-2.76L237,121.47Z"/><path class="cls-14" d="M253.62,121.47h2.76L191.81,28h-2.76l64.56,93.47Z"/><path class="cls-14" d="M270.27,121.47H273L208.46,28H205.7l64.56,93.47Z"/><path class="cls-14" d="M286.91,121.47h2.76L225.11,28h-2.76l64.56,93.47Z"/><path class="cls-14" d="M303.56,121.47h2.76L241.75,28H239l64.56,93.47Z"/><path class="cls-14" d="M299.27,87.17,258.4,28h-2.76l40.87,59.17Z"/><path class="cls-14" d="M336.86,121.47h2.76L275,28h-2.76l64.56,93.47Z"/><path class="cls-14" d="M353.5,121.47h2.76L291.7,28h-2.76l64.56,93.47Z"/><path class="cls-14" d="M370.15,121.47h2.76L308.34,28h-2.76l64.56,93.47Z"/><path class="cls-14" d="M386.8,121.47h2.76L325,28h-2.76l64.56,93.47Z"/><path class="cls-14" d="M403.45,121.47h2.76L355.82,48.53l-1.15,2.33,48.77,70.61Z"/><path class="cls-14" d="M420.09,121.47h2.76l-60.1-87-1.15,2.33,58.49,84.68Z"/><polygon class="cls-15" points="336.86 213.81 339.61 213.81 339.61 268.26 336.86 268.26 336.86 213.81 336.86 213.81"/><polygon class="cls-16" points="320.21 185.71 322.96 185.71 322.96 199.91 320.21 199.91 320.21 185.71 320.21 185.71"/><polygon class="cls-4" points="336.86 121.47 313.16 87.17 313.16 99.36 329.93 123.63 329.93 157.31 336.86 157.31 336.86 121.47 336.86 121.47"/><polygon class="cls-5" points="291.05 99.36 313.16 99.36 313.16 87.17 282.63 87.17 291.05 99.36 291.05 99.36"/><polygon class="cls-11" points="291.05 99.36 297.24 99.36 282.63 87.17 291.05 99.36 291.05 99.36"/><polygon class="cls-16" points="336.86 185.71 339.61 185.71 339.61 213.81 336.86 213.81 336.86 185.71 336.86 185.71"/><polygon class="cls-16" points="303.56 185.71 306.32 185.71 306.32 199.91 304.84 199.91 303.56 198.06 303.56 185.71 303.56 185.71"/><polygon class="cls-17" points="79.67 279.7 208.79 279.7 208.79 291.14 79.67 291.14 79.67 279.7 79.67 279.7"/><polygon class="cls-18" points="208.79 279.7 434.38 279.7 434.38 291.14 208.79 291.14 208.79 279.7 208.79 279.7"/><polygon class="cls-19" points="192.23 185.09 134.78 268.26 132.6 268.26 132.6 252.65 192.23 166.33 192.23 185.09 192.23 185.09"/><polygon class="cls-19" points="192.23 209.6 151.72 268.26 140.77 268.26 192.23 193.75 192.23 209.6 192.23 209.6"/><polygon class="cls-19" points="192.23 135.77 192.23 144.7 132.6 231.02 132.6 222.09 192.23 135.77 192.23 135.77"/><polygon class="cls-20" points="132.6 231.02 117.86 252.37 117.86 243.44 132.6 222.09 132.6 231.02 132.6 231.02"/><polygon class="cls-20" points="132.6 268.26 121.83 268.26 132.6 252.65 132.6 268.26 132.6 268.26"/><path class="cls-21" d="M192.23,204h-8.15v64.26H180V204H144.85v64.26h-4.09V204H116.15v64.26h-4.09V125.9l40.09-58,2.49,3.6-9.79,14.17v81.79H180V108.18l4.09,5.92v53.32h8.15v4.09h-8.15v28.4h8.15V204Zm-76.08-4.09h24.61v-28.4H116.15v28.4Zm0-32.49h24.61V91.55l-24.61,35.62v40.24Zm28.7,32.49H180v-28.4H144.85v28.4Z"/><path class="cls-22" d="M155.49,72.7l-8.93,12.93v81.79h-1.71V85.63l9.79-14.17.85,1.24ZM116.15,204h1.71v64.26h-1.71V204Zm28.7,0h1.71v64.26h-1.71V204Zm39.24,0h1.71v64.26h-1.71V204Zm-67.94-32.49h1.71v28.4h-1.71v-28.4Zm28.7,0h1.71v28.4h-1.71v-28.4Zm39.24,0h1.71v28.4h-1.71v-28.4Zm-66.23-44.34v40.24h-1.71V127.17l24.61-35.62V94l-22.9,33.15Zm67.94-10.6v50.84h-1.71V114.1l1.71,2.47Z"/><path class="cls-23" d="M349.57,61.22h0L365.93,28H350.31V57.4q0,.38,0,.76v0h0a7.79,7.79,0,0,1-.74,3Z"/><path class="cls-15" d="M355.74,48.41,341.64,28h-2.76l15.71,22.74,1.15-2.32Z"/><path class="cls-15" d="M362.75,34.46,358.29,28h-2.76l6.07,8.79,1.15-2.33Z"/><path class="cls-24" d="M350.31,57.4c0,.26,0,.51,0,.76v0h0a7,7,0,0,1-2.56,5.33c-3.38,2.65-8.8,1.38-12.12-2.84a11.14,11.14,0,0,1-2.44-6.33h0q0-.39,0-.77V0h17.12V57.4Z"/><path class="cls-25" d="M350.31,57.4c0,.26,0,.51,0,.76v0h0a7,7,0,0,1-2.56,5.33,6.32,6.32,0,0,1-1.57.9V0h4.14V57.4Z"/><polygon class="cls-26" points="220.32 121.47 223.08 121.47 223.08 268.26 220.32 268.26 220.32 121.47 220.32 121.47"/><polygon class="cls-26" points="236.97 121.47 239.73 121.47 239.73 268.26 236.97 268.26 236.97 121.47 236.97 121.47"/><polygon class="cls-26" points="253.62 121.47 256.38 121.47 256.38 268.26 253.62 268.26 253.62 121.47 253.62 121.47"/><polygon class="cls-26" points="270.27 121.47 273.02 121.47 273.02 268.26 270.27 268.26 270.27 121.47 270.27 121.47"/><polygon class="cls-26" points="286.92 121.47 289.67 121.47 289.67 268.26 286.92 268.26 286.92 121.47 286.92 121.47"/><polygon class="cls-26" points="303.56 121.47 306.32 121.47 306.32 171.51 303.56 171.51 303.56 121.47 303.56 121.47"/><polygon class="cls-26" points="320.21 157.31 322.96 157.31 322.96 171.51 320.21 171.51 320.21 157.31 320.21 157.31"/><polygon class="cls-26" points="336.86 121.47 339.61 121.47 339.61 171.51 336.86 171.51 336.86 121.47 336.86 121.47"/><polygon class="cls-26" points="353.5 121.47 356.26 121.47 356.26 171.51 353.5 171.51 353.5 121.47 353.5 121.47"/><polygon class="cls-26" points="370.15 121.47 372.91 121.47 372.91 171.51 370.15 171.51 370.15 121.47 370.15 121.47"/><polygon class="cls-26" points="386.8 121.47 389.56 121.47 389.56 268.26 386.8 268.26 386.8 121.47 386.8 121.47"/><polygon class="cls-26" points="403.45 121.47 406.2 121.47 406.2 268.26 403.45 268.26 403.45 121.47 403.45 121.47"/><polygon class="cls-26" points="420.09 121.47 422.85 121.47 422.85 268.26 420.09 268.26 420.09 121.47 420.09 121.47"/><polygon class="cls-26" points="303.56 198.06 304.84 199.91 306.32 199.91 306.32 268.26 303.56 268.26 303.56 198.06 303.56 198.06"/></g></g></svg>