<svg xmlns="http://www.w3.org/2000/svg" viewBox="0 0 396.57 375.04"><defs><style>.cls-1{fill:#fff;}.cls-1,.cls-2,.cls-3,.cls-4,.cls-5,.cls-6{fill-rule:evenodd;}.cls-2{fill:#e0d8ce;}.cls-3{fill:#476265;}.cls-4{fill:#9abeb8;}.cls-5{fill:#8eb9bc;}.cls-6{fill:#d5ede0;}</style></defs><title>Asset 4</title><g id="Layer_2" data-name="Layer 2"><g id="Layer_1-2" data-name="Layer 1"><path class="cls-1" d="M337.37,375h9.34V147.62H343c-2.4,73.28-4.64,154.14-5.66,227.42Z"/><path class="cls-2" d="M356.05,375h-9.34V147.62h3.68c2.4,73.28,4.64,154.14,5.66,227.42Z"/><path class="cls-2" d="M346.71,147.62l2.52,2.76a97.48,97.48,0,0,1,8.31,17.31c3,8.45,6.61,30.29,8.35,45,.36,1.78-.59,2.12-1.12,2.27l-18.06-67.39Z"/><path class="cls-1" d="M346.71,147.62l-.81,3.65a97.47,97.47,0,0,0,1.46,19.15c1.65,8.81,9.41,29.53,15.3,43.19.58,1.73,1.57,1.54,2.11,1.4l-18.06-67.39Z"/><path class="cls-2" d="M346.71,147.62l1.13-3.57a97.49,97.49,0,0,1,10.84-15.85c5.83-6.8,22.92-20.87,34.84-29.75,1.37-1.2,2.13-.54,2.53-.16l-49.33,49.33Z"/><path class="cls-1" d="M346.71,147.62l3.57-1.13a97.51,97.51,0,0,0,15.85-10.84c6.8-5.83,20.87-22.92,29.75-34.84,1.2-1.37.54-2.13.16-2.53l-49.33,49.33Z"/><path class="cls-2" d="M346.71,147.62l-3.65.81A97.48,97.48,0,0,1,323.91,147c-8.8-1.65-29.53-9.42-43.19-15.3-1.73-.58-1.54-1.57-1.4-2.11l67.39,18.06Z"/><path class="cls-1" d="M346.71,147.62,344,145.09a97.46,97.46,0,0,0-17.31-8.31c-8.45-3-30.28-6.61-45-8.35-1.78-.36-2.12.59-2.27,1.12l67.39,18.06Z"/><path class="cls-3" d="M346.71,139a8.66,8.66,0,1,1,0,17.31V139Z"/><path class="cls-4" d="M346.71,143a4.61,4.61,0,1,1,0,9.22V143Z"/><path class="cls-5" d="M346.71,156.27a8.66,8.66,0,0,1,0-17.31v17.31Z"/><path class="cls-6" d="M346.71,152.23a4.61,4.61,0,0,1,0-9.22v9.22Z"/><path class="cls-1" d="M213.47,375h10.68V116.18h-4.21c-2.74,83.76-5.31,175.1-6.47,258.86Z"/><path class="cls-2" d="M234.82,375H224.15V116.18h4.21c2.74,83.76,5.31,175.1,6.47,258.86Z"/><path class="cls-2" d="M224.15,116.18l3.6,2.3A111.43,111.43,0,0,1,242,135.14c5.78,8.45,16.26,31.48,22.54,47.27.92,1.86,0,2.51-.57,2.84l-39.87-69.06Z"/><path class="cls-1" d="M224.15,116.18l.19,4.27a111.45,111.45,0,0,0,7.28,20.71c4.43,9.23,19.13,29.82,29.66,43.15,1.15,1.73,2.19,1.23,2.74.92l-39.87-69.06Z"/><path class="cls-2" d="M224.15,116.18l-3.79,2a111.44,111.44,0,0,1-21.57,4.05c-10.21.78-35.39-1.66-52.2-4.11-2.08-.13-2.16-1.28-2.17-1.91Z"/><path class="cls-1" d="M224.15,116.18l-3.79-2a111.42,111.42,0,0,0-21.57-4.05c-10.21-.78-35.39,1.66-52.2,4.11-2.08.13-2.16,1.28-2.17,1.91Z"/><path class="cls-2" d="M224.15,116.18l.19-4.27a111.41,111.41,0,0,1,7.28-20.71C236,82,250.75,61.38,261.28,48c1.15-1.73,2.19-1.23,2.74-.92l-39.87,69.06Z"/><path class="cls-1" d="M224.15,116.18l3.6-2.3A111.41,111.41,0,0,0,242,97.23c5.78-8.45,16.26-31.48,22.54-47.27.92-1.86,0-2.51-.57-2.84l-39.87,69.06Z"/><path class="cls-3" d="M224.15,106.29a9.89,9.89,0,0,1,0,19.79V106.29Z"/><path class="cls-4" d="M224.15,110.91a5.27,5.27,0,0,1,0,10.54V110.91Z"/><path class="cls-5" d="M224.15,126.07a9.89,9.89,0,0,1,0-19.79v19.79Z"/><path class="cls-6" d="M224.15,121.45a5.27,5.27,0,0,1,0-10.54v10.54Z"/><path class="cls-1" d="M74.35,375H86.29V86.29H81.58C78.52,180,75.64,281.32,74.35,375Z"/><path class="cls-2" d="M98.24,375H86.29V86.29H91c3.07,93.72,5.94,195,7.24,288.75Z"/><path class="cls-2" d="M86.29,86.29l-1-4.67c0-9.2.32-16.24,1.87-24.49,2.11-11.26,12-37.77,19.56-55.23.74-2.21,2-2,2.7-1.79L86.29,86.29Z"/><path class="cls-1" d="M86.29,86.29l3.23-3.53c4.6-8,7.84-14.22,10.63-22.14C104,49.81,108.61,21.89,110.82,3c.46-2.28-.76-2.71-1.44-2.9L86.29,86.29Z"/><path class="cls-2" d="M86.29,86.29l4.56,1.44c8,4.6,13.9,8.39,20.28,13.86,8.7,7.46,26.69,29.32,38.05,44.56,1.54,1.75.69,2.73.2,3.23L86.29,86.29Z"/><path class="cls-1" d="M86.29,86.29l1.44,4.56c4.6,8,8.39,13.9,13.86,20.28,7.46,8.7,29.32,26.69,44.56,38.05,1.75,1.54,2.73.7,3.23.2L86.29,86.29Z"/><path class="cls-2" d="M86.29,86.29l-3.53,3.23c-8,4.6-14.22,7.84-22.14,10.63C49.81,104,21.89,108.61,3,110.82c-2.28.46-2.71-.76-2.9-1.44L86.29,86.29Z"/><path class="cls-1" d="M86.29,86.29l-4.67-1c-9.2,0-16.24.32-24.49,1.87-11.26,2.11-37.77,12-55.23,19.56-2.21.74-2,2-1.79,2.7L86.29,86.29Z"/><path class="cls-3" d="M86.29,75.22a11.07,11.07,0,0,1,0,22.14V75.22Z"/><path class="cls-4" d="M86.29,80.4a5.89,5.89,0,0,1,0,11.79V80.4Z"/><path class="cls-5" d="M86.29,97.36a11.07,11.07,0,0,1,0-22.14V97.36Z"/><path class="cls-6" d="M86.29,92.19a5.9,5.9,0,1,1,0-11.79V92.19Z"/></g></g></svg>