<svg xmlns="http://www.w3.org/2000/svg" viewBox="0 0 168.07 98.43"><defs><style>.cls-1{fill:#bbb9b1;}.cls-1,.cls-10,.cls-11,.cls-12,.cls-13,.cls-2,.cls-3,.cls-4,.cls-5,.cls-6,.cls-7,.cls-8,.cls-9{fill-rule:evenodd;}.cls-2{fill:#d67627;}.cls-3{fill:#4e4e4e;}.cls-4{fill:#252525;}.cls-5{fill:#cf8127;}.cls-6{fill:#ad5918;}.cls-7{fill:#b8d0cc;}.cls-8{fill:#fff;}.cls-9{fill:#ceecf8;}.cls-10{fill:#45576c;}.cls-11{fill:#75919c;}.cls-12{fill:#213443;}.cls-13{fill:#eba956;}</style></defs><title>Asset 1</title><g id="Layer_2" data-name="Layer 2"><g id="Layer_1-2" data-name="Layer 1"><path class="cls-1" d="M88,87.68c44.2,0,80,2.41,80,5.37s-35.83,5.37-80,5.37S8,96,8,93.05s35.83-5.37,80-5.37Z"/><path class="cls-2" d="M109.12,3.49c3.52.57,4.28,2.2,5.49,5.55l9.46,26.27a37.65,37.65,0,0,1,2.7,12l0,15.22H12.41l0-15.22a37.66,37.66,0,0,1,2.7-12L24.56,9c1.21-3.35,2-5,5.49-5.55,28.61-4.65,50.46-4.65,79.07,0ZM3.45,32.15H16.23l2.41-6.68h0l-4.89-4.07A5.88,5.88,0,0,0,10.09,20H3.36A2.41,2.41,0,0,0,.73,21.84a18.13,18.13,0,0,0-.48,7.94c.36,1.53,1.28,2.37,3.2,2.37Z"/><path class="cls-3" d="M27.92,81.27v9.25a2.54,2.54,0,0,1-2.53,2.53H13a2.54,2.54,0,0,1-2.53-2.53V60.78a2.54,2.54,0,0,1,1.94-2.46V74.77a6.52,6.52,0,0,0,6.5,6.5Z"/><path class="cls-4" d="M111.24,81.27v9.25a2.54,2.54,0,0,0,2.53,2.53h12.39a2.54,2.54,0,0,0,2.53-2.53V60.78a2.54,2.54,0,0,0-1.94-2.46V74.77a6.52,6.52,0,0,1-6.5,6.5Z"/><path class="cls-5" d="M126.75,62.56V74.77a6.52,6.52,0,0,1-6.5,6.5H18.91a6.52,6.52,0,0,1-6.5-6.5V62.56Z"/><path class="cls-6" d="M126.75,62.56V74.77a6.52,6.52,0,0,1-6.5,6.5H43.9L46,78.15h-27a6.52,6.52,0,0,1-6.5-6.5V62.56h43.8L96.28,1.66c4.15.5,8.42,1.1,12.84,1.82,3.52.57,4.28,2.2,5.49,5.55l9.46,26.27a37.65,37.65,0,0,1,2.7,12l0,15.22Zm9-30.41H122.93l-2.41-6.68h0l4.89-4.07A5.87,5.87,0,0,1,129.07,20h6.73a2.41,2.41,0,0,1,2.64,1.81,18.13,18.13,0,0,1,.48,7.94c-.36,1.53-1.28,2.37-3.2,2.37Z"/><path class="cls-3" d="M42.9,47.34H96.26A1.71,1.71,0,0,1,98,49.05v8.69a1.71,1.71,0,0,1-1.71,1.71H42.9a1.71,1.71,0,0,1-1.71-1.71V49.05a1.71,1.71,0,0,1,1.71-1.71Z"/><path class="cls-7" d="M104.58,59.43l15.68-1.7A2.8,2.8,0,0,0,122.89,55l-.08-5.08c-.06-3.86-4-4.52-5.36-4.08l-12.4,4a3.32,3.32,0,0,0-2.63,2.76L102,56.67a2.53,2.53,0,0,0,2.63,2.76Z"/><path class="cls-4" d="M66.22,47.34h30A1.71,1.71,0,0,1,98,49.05v8.69a1.71,1.71,0,0,1-1.71,1.71h-38l8-12.1Z"/><path class="cls-8" d="M34.58,59.43,18.9,57.73A2.8,2.8,0,0,1,16.27,55l.08-5.08c.06-3.86,4-4.52,5.36-4.08l12.4,4a3.32,3.32,0,0,1,2.63,2.76l.46,4.07a2.53,2.53,0,0,1-2.63,2.76Z"/><path class="cls-9" d="M108.57,6.5a3.29,3.29,0,0,1,2.94,2.66L116,23H102.82V19.51a2.3,2.3,0,0,0-2.29-2.29h-16a2.3,2.3,0,0,0-2.29,2.29V23H56.94V19.51a2.3,2.3,0,0,0-2.29-2.29h-16a2.3,2.3,0,0,0-2.29,2.29V23H23.12L27.65,9.17A3.29,3.29,0,0,1,30.59,6.5Q50.05,5,69.58,5t39,1.47Z"/><path class="cls-10" d="M116,23l1,3.15c.44,1.65,0,2.71-2,2.86-15.1.94-30.29,1.41-45.47,1.41S39.22,30,24.11,29c-2-.15-2.47-1.21-2-2.86l1-3.15H36.34V19.51a2.3,2.3,0,0,1,2.29-2.29h16a2.3,2.3,0,0,1,2.29,2.29V23H82.22V19.51a2.3,2.3,0,0,1,2.29-2.29h16a2.3,2.3,0,0,1,2.29,2.29V23Z"/><path class="cls-11" d="M108.57,6.5a3.29,3.29,0,0,1,2.94,2.66L116,23H102.82V19.51a2.3,2.3,0,0,0-2.29-2.29h-16a2.3,2.3,0,0,0-2.29,2.29V23H63.73l11.82-18q16.53.19,33,1.43Z"/><path class="cls-12" d="M116,23l1,3.15c.44,1.65,0,2.71-2,2.86-15.1.94-30.29,1.41-45.47,1.41q-5.34,0-10.68-.08L63.73,23H82.22V19.51a2.3,2.3,0,0,1,2.29-2.29h16a2.3,2.3,0,0,1,2.29,2.29V23Z"/><path class="cls-9" d="M86,17.21H84.51a2.3,2.3,0,0,0-2.29,2.29V23h-13L81,5.16q6.36.14,12.71.43L86,17.21Z"/><path class="cls-10" d="M77.36,30.41q-3.89,0-7.78,0l-5.22,0L69.23,23h13V19.51a2.3,2.3,0,0,1,2.29-2.29H86l-8.68,13.2Z"/><path class="cls-3" d="M42.9,66.6H96.26A1.71,1.71,0,0,1,98,68.31v2.9a1.71,1.71,0,0,1-1.71,1.71H42.9a1.71,1.71,0,0,1-1.71-1.71v-2.9A1.71,1.71,0,0,1,42.9,66.6Z"/><path class="cls-8" d="M18,66.6H30a1.71,1.71,0,0,1,1.71,1.71v2.9A1.71,1.71,0,0,1,30,72.92H18a1.71,1.71,0,0,1-1.71-1.71v-2.9A1.71,1.71,0,0,1,18,66.6Z"/><path class="cls-7" d="M109.15,66.6h12a1.71,1.71,0,0,1,1.71,1.71v2.9a1.71,1.71,0,0,1-1.71,1.71h-12a1.71,1.71,0,0,1-1.71-1.71v-2.9a1.71,1.71,0,0,1,1.71-1.71Z"/><path class="cls-4" d="M53.55,66.6h42.7A1.71,1.71,0,0,1,98,68.31v2.9a1.71,1.71,0,0,1-1.71,1.71H49.4l4.16-6.32Z"/><path class="cls-2" d="M135.72,32.15H122.93l-2.41-6.68h0l4.89-4.07A5.87,5.87,0,0,1,129.07,20h6.73a2.41,2.41,0,0,1,2.64,1.81,18.13,18.13,0,0,1,.48,7.94c-.36,1.53-1.28,2.37-3.2,2.37Z"/><path class="cls-13" d="M96.26,47.34A1.71,1.71,0,0,1,98,49.05v.12l17.9-6.63c3.42-1.43,5.24-4.07,4.11-7.51l-2.9-8.86c.44,1.65,0,2.71-2,2.86-15.1.94-30.29,1.41-45.47,1.41S39.22,30,24.11,29c-2-.15-2.47-1.21-2-2.86L19.19,35c-1.13,3.44.69,6.08,4.11,7.51l17.9,6.63v-.12a1.71,1.71,0,0,1,1.71-1.71H96.26Z"/><path class="cls-2" d="M96.26,47.34A1.71,1.71,0,0,1,98,49.05v.12l17.9-6.63c3.42-1.43,5.24-4.07,4.11-7.51l-2.9-8.86c.44,1.65,0,2.71-2,2.86q-18.78,1.17-37.69,1.37L66.22,47.34h30Z"/><path class="cls-13" d="M3.44,32.16H16.23l2.41-6.68h0L13.75,21.4A5.87,5.87,0,0,0,10.08,20H3.36A2.41,2.41,0,0,0,.72,21.85a18.14,18.14,0,0,0-.48,7.94c.36,1.53,1.28,2.37,3.2,2.37Z"/></g></g></svg>