<svg xmlns="http://www.w3.org/2000/svg" viewBox="0 0 850.1 129.45"><defs><style>.cls-1{fill:#9ca744;}.cls-1,.cls-2{fill-rule:evenodd;}.cls-2{fill:#757c38;}</style></defs><title>Asset 2</title><g id="Layer_2" data-name="Layer 2"><g id="Layer_1-2" data-name="Layer 1"><path class="cls-1" d="M22.4,89.42A22.29,22.29,0,0,1,38.27,96,30.31,30.31,0,1,1,87,129.45H8.45a22.47,22.47,0,0,1,13.94-40Z"/><path class="cls-2" d="M31.18,119.49a8.28,8.28,0,0,0,6.1-4.44h0a30.36,30.36,0,0,1-.95-5.27c.31-9,10.16,9.63,19.14,10.72,13.8,1.66,8.11-2.38,22.57-5.69,16-3.66,10.63-31.9,18.31-12.86v0a30.69,30.69,0,0,1,.42,5.05A30.34,30.34,0,0,1,87,129.45H8.45a22.54,22.54,0,0,1-5.71-6.8l0-.09c-4-8.58,4.95,5.36,11.54,4.24,7.83-1.33,6.06-5.89,16.94-7.31Z"/><path class="cls-2" d="M70.3,103c1.37,0,2.48,1.79,2.48,4s-1.11,1.41-2.48,1.41-2.48.8-2.48-1.41,1.11-4,2.48-4Z"/><path class="cls-2" d="M79.47,95.72c1.37,0,2.48,1.79,2.48,4s-1.11,1.41-2.48,1.41-2.48.8-2.48-1.41,1.11-4,2.48-4Z"/><path class="cls-2" d="M70.3,86.81c1.37,0,2.48,1.79,2.48,4s-1.11,1.41-2.48,1.41-2.48.8-2.48-1.41,1.11-4,2.48-4Z"/><path class="cls-1" d="M492,15.66A39.95,39.95,0,1,1,452.2,55.61,39.89,39.89,0,0,1,492,15.66Z"/><path class="cls-2" d="M507.21,65.84c21.08-4.82,14-42,24.08-16.91v0a40.33,40.33,0,0,1,.55,6.65,39.82,39.82,0,0,1-74.79,19.16l-.08-.17c-7.19-15.27,8.8,9.54,20.53,7.55,13.92-2.37,10.66-12,29.69-16.31Z"/><path class="cls-2" d="M500.43,56.38c1.53,0,2.77,2,2.77,4.46s-1.24,1.57-2.77,1.57-2.77.89-2.77-1.57,1.24-4.46,2.77-4.46Z"/><path class="cls-2" d="M511.43,49.38c1.39,0,2.52,1.82,2.52,4.07s-1.13,1.43-2.52,1.43-2.52.81-2.52-1.43,1.13-4.07,2.52-4.07Z"/><path class="cls-2" d="M501,37.47c1.37,0,2.48,1.79,2.48,4s-1.11,1.41-2.48,1.41-2.48.8-2.48-1.41,1.11-4,2.48-4Z"/><path class="cls-2" d="M477.13,30C478.71,30,480,32,480,34.59s-1.28,1.63-2.86,1.63-2.86.92-2.86-1.63S475.55,30,477.13,30Z"/><path class="cls-1" d="M821.26,83.49a28.94,28.94,0,0,1,23.31,46H545a52.06,52.06,0,0,1,69-77.13,69.21,69.21,0,0,1,132.44-6C780.26,29.22,814.93,53.85,815.7,84a28.88,28.88,0,0,1,5.56-.54Z"/><path class="cls-2" d="M829.88,115.68c10.81,0,3-30.39,19.44-10a29,29,0,0,1-4.74,23.77H813.72c-1.54-4.39,2.7-13.88,16.16-13.77Z"/><path class="cls-2" d="M771.31,83.53c1.62,0,2.93,2.12,2.93,4.73s-1.31,1.67-2.93,1.67-2.93.94-2.93-1.67,1.31-4.73,2.93-4.73Z"/><path class="cls-2" d="M753.05,91.06c1.78,0,3.22,1.91,3.22,4.26s-1.44.92-3.22.92-3.22,1.43-3.22-.92,1.44-4.27,3.22-4.27Z"/><path class="cls-2" d="M761.63,69.86c1.4,0,2.54,1.84,2.54,4.1S763,75.4,761.63,75.4s-2.54.82-2.54-1.44,1.14-4.1,2.54-4.1Z"/><path class="cls-2" d="M728.26,26.07c1.56,0,2.82,2,2.82,4.55s-1.26,1.6-2.82,1.6-2.82.91-2.82-1.6,1.26-4.55,2.82-4.55Z"/><path class="cls-2" d="M718.18,33.66c1.63,0,2.94,2.13,2.94,4.75s-1.32,1.67-2.94,1.67-2.94.95-2.94-1.67,1.32-4.75,2.94-4.75Z"/><path class="cls-2" d="M713,18.69c1.23,0,2.23,1.61,2.23,3.59s-1,1.27-2.23,1.27-2.23.72-2.23-1.27,1-3.59,2.23-3.59Z"/><path class="cls-2" d="M811.54,111.68c1.35,0,2.45,1.77,2.45,3.95s-1.1,1.39-2.45,1.39-2.45.79-2.45-1.39,1.1-3.95,2.45-3.95Z"/><path class="cls-2" d="M602.1,110.91c5.55-.72,17.84,4,16.83-9.36v0a58.83,58.83,0,0,1-1.84-10.21c.6-17.49,19.69,18.67,37.09,20.77,26.75,3.23,15.23-14.75,43.75-11,9.7,1.27,17.35-6.18,17.41-14.06-7.19-4.74-15.23-41.41,4.59-41.41,11.11,0,17.52-15.8,26.43.72a63.94,63.94,0,0,0-29,41.12,51.47,51.47,0,0,0,.4,13.83c5.29,12.23,22.91,16.47,28.63,5.26,4-7.8,18.36-.67,26.76-3.55,12.4-4.26,13.25-27.47,27.38-12.33-10.16,8.08-20.33,22.24-11.42,38.76H545a52.14,52.14,0,0,1-10.79-19.19c3.77-2.21,23.74,12.53,33.9,10.8,15.16-2.58,12.94-7.4,34-10.15ZM716.88,87.54c.2.11.37.12.46-.06a1.87,1.87,0,0,1-.46.06Z"/><path class="cls-2" d="M604.14,60.18c1.3,0,2.35,1.69,2.35,3.78s-1.05,1.33-2.35,1.33-2.35.76-2.35-1.33,1.05-3.78,2.35-3.78Z"/><path class="cls-2" d="M590.26,60.18c1.29,0,2.35,1.69,2.35,3.78s-1.05,1.33-2.35,1.33-2.35.76-2.35-1.33,1.05-3.78,2.35-3.78Z"/><path class="cls-2" d="M552.63,101.25c1.63,0,2.94,2.13,2.94,4.75s-1.32,1.67-2.94,1.67-2.94.95-2.94-1.67,1.32-4.75,2.94-4.75Z"/></g></g></svg>